PathFileType	4	(X/Y/Z)	C:/Users/opensim2020/Desktop/walking_exp_matlab/subject03_walking04_static.trc	
DataRate	CameraRate	NumFrames	NumMarkers	Units	OrigDataRate	OrigDataStartFrame	OrigNumFrames	
100.00	100.00	6	51	mm	100.00	305	196	
Frame#	Time	LFHD			RFHD			LBHD			RBHD			C7			T10			CLAV			STRN			RBAK			LSHO			LUPA			LELB			LFRM			LWRA			LWRB			LFIN			RSHO			RUPA			RELB			RFRM			RWRA			RWRB			RFIN			LASI			RASI			LPSI			RPSI			LTHI			LKNE			LTIB			LANK			LHEE			LTOE			RTHI			RKNE			RTIB			RANK			RHEE			RTOE			*39			*40			*41			*42			*43			*44			*45			*46			*47			*48			*49			*50			
		X1	Y1	Z1	X2	Y2	Z2	X3	Y3	Z3	X4	Y4	Z4	X5	Y5	Z5	X6	Y6	Z6	X7	Y7	Z7	X8	Y8	Z8	X9	Y9	Z9	X10	Y10	Z10	X11	Y11	Z11	X12	Y12	Z12	X13	Y13	Z13	X14	Y14	Z14	X15	Y15	Z15	X16	Y16	Z16	X17	Y17	Z17	X18	Y18	Z18	X19	Y19	Z19	X20	Y20	Z20	X21	Y21	Z21	X22	Y22	Z22	X23	Y23	Z23	X24	Y24	Z24	X25	Y25	Z25	X26	Y26	Z26	X27	Y27	Z27	X28	Y28	Z28	X29	Y29	Z29	X30	Y30	Z30	X31	Y31	Z31	X32	Y32	Z32	X33	Y33	Z33	X34	Y34	Z34	X35	Y35	Z35	X36	Y36	Z36	X37	Y37	Z37	X38	Y38	Z38	X39	Y39	Z39	X40	Y40	Z40	X41	Y41	Z41	X42	Y42	Z42	X43	Y43	Z43	X44	Y44	Z44	X45	Y45	Z45	X46	Y46	Z46	X47	Y47	Z47	X48	Y48	Z48	X49	Y49	Z49	X50	Y50	Z50	X51	Y51	Z51	

123	1.220	342.30811	-678.19922	1629.81201	372.95938	-549.02924	1644.61243	469.96838	-698.90179	1588.22681	495.45999	-571.19904	1603.12231	511.11288	-630.35718	1425.59363	528.82983	-619.67737	1114.18652	383.16171	-611.70221	1361.43652	328.39532	-608.32086	1197.69482	563.67023	-539.28168	1247.23438	428.79440	-772.65271	1395.68701	440.94519	-855.40405	1205.12024	436.27454	-882.14197	1085.00171	403.20508	-899.56378	959.95062	369.09061	-886.56049	842.85590	403.82370	-930.19305	848.90900	378.94406	-931.57605	767.43604	466.69565	-464.36285	1389.51465	475.38177	-367.96808	1179.64600	460.49664	-333.21887	1072.59570	439.59805	-303.84225	939.73486	396.66470	-312.83997	843.77533	439.30756	-278.94150	841.79980	411.63583	-272.48108	771.55469	371.90869	-720.48657	944.96442	387.58167	-487.03290	946.21771	536.48456	-683.60608	979.13745	543.21460	-534.25250	987.40222	444.93668	-772.92065	646.31030	456.33618	-735.95166	468.95148	515.09076	-755.03754	285.44699	539.09485	-729.93091	73.99480	580.75159	-697.06958	37.03428	386.95926	-709.13861	34.32801	464.64325	-441.51205	653.72522	461.46283	-474.73306	473.92999	516.70673	-463.09671	293.22357	546.97675	-501.58969	76.68736	587.32153	-553.23248	42.36778	404.84549	-500.50211	36.41372	432.20773	-652.77997	1696.78613																																	 
124	1.230	342.10318	-678.42590	1629.77087	372.74689	-549.27863	1644.64050	469.75620	-699.07983	1588.13062	495.21921	-571.37384	1603.11560	510.85635	-630.49243	1425.55151	528.60535	-619.79456	1114.16992	382.94376	-611.82483	1361.40515	328.13065	-608.38995	1197.67419	563.42645	-539.38464	1247.22729	428.52005	-772.77136	1395.64490	440.64490	-855.54822	1205.08948	435.89471	-882.19513	1084.93127	402.71091	-899.61646	959.92010	368.48483	-886.58234	842.81177	403.17926	-930.21619	848.88275	378.22125	-931.59082	767.44922	466.46762	-464.49359	1389.53125	475.15649	-368.07919	1179.66614	460.30478	-333.32541	1072.64099	439.45786	-303.95532	939.72968	396.51099	-312.93814	843.76544	439.19208	-279.04068	841.82526	411.50427	-272.54291	771.50897	371.79727	-720.50732	944.87268	387.40448	-487.10104	946.18842	536.14734	-683.62665	979.20007	542.99384	-534.34180	987.43353	444.70166	-772.97180	646.29468	456.19385	-736.06720	468.93964	515.02209	-755.07306	285.44958	539.06976	-729.91266	73.95519	580.72681	-697.07391	37.00311	386.94736	-709.16650	34.34381	464.56454	-441.55515	653.70203	461.38278	-474.78448	473.91309	516.67737	-463.14395	293.21524	546.93372	-501.57413	76.69263	587.30859	-553.22607	42.35019	404.83899	-500.50067	36.41503	432.00620	-653.02850	1696.73401																																	 
125	1.240	341.87131	-678.59949	1629.72339	372.49979	-549.46295	1644.64099	469.53256	-699.25970	1588.06274	494.95242	-571.56268	1603.09827	510.59998	-630.61707	1425.53455	528.38470	-619.88776	1114.14575	382.68561	-611.93958	1361.39551	327.87872	-608.42548	1197.65149	563.16168	-539.51648	1247.24719	428.23907	-772.87659	1395.59753	440.31461	-855.60345	1205.01001	435.58871	-882.26471	1084.89612	402.28152	-899.66394	959.89594	367.96967	-886.58081	842.83209	402.69196	-930.17981	848.79224	377.63965	-931.75696	767.44751	466.21249	-464.57602	1389.54382	474.92014	-368.17090	1179.66931	460.11008	-333.41135	1072.62622	439.28088	-304.04019	939.70490	396.39407	-313.02725	843.75684	439.02481	-279.12601	841.79852	411.40833	-272.60287	771.55048	371.54877	-720.58484	944.84357	387.20230	-487.16980	946.19940	535.79688	-683.58984	979.19055	542.79242	-534.45178	987.45599	444.50299	-772.99939	646.26697	456.10938	-736.09387	468.91653	514.96558	-755.10992	285.45599	539.06781	-729.93634	73.99283	580.74939	-697.09930	37.02864	386.93610	-709.16827	34.37106	464.41794	-441.63660	653.66296	461.32059	-474.80673	473.91525	516.64948	-463.18082	293.21652	546.95435	-501.62302	76.74617	587.18182	-553.00842	42.26691	404.83102	-500.51157	36.41320	431.78769	-653.26538	1696.68945																																	 
126	1.250	341.65048	-678.80859	1629.68982	372.21390	-549.64545	1644.69458	469.27441	-699.42059	1587.99780	494.70535	-571.76038	1603.06201	510.32739	-630.69031	1425.49927	528.15845	-619.97504	1114.14880	382.40353	-611.98944	1361.39709	327.61725	-608.53094	1197.62329	562.90576	-539.57806	1247.22900	427.99832	-772.94867	1395.56030	439.97519	-855.71667	1204.98120	435.16830	-882.34937	1084.81934	401.82944	-899.70959	959.85950	367.30566	-886.64197	842.84180	402.26266	-930.11615	848.76691	377.05493	-931.74548	767.44116	465.95126	-464.67722	1389.54504	474.68207	-368.26907	1179.66748	459.86719	-333.49423	1072.59534	439.09531	-304.11667	939.71332	396.18423	-313.08337	843.76599	438.89832	-279.23309	841.78027	411.27332	-272.67093	771.44946	371.65851	-720.53998	944.70013	387.04291	-487.23972	946.18756	535.58466	-683.64044	979.18304	542.56342	-534.52313	987.45953	444.36505	-773.01440	646.22333	456.02975	-736.12006	468.95432	514.91254	-755.10669	285.43829	539.08002	-729.89557	73.99521	580.75500	-697.05634	37.02002	386.95642	-709.15991	34.36306	464.27487	-441.67792	653.65759	461.20737	-474.83902	473.91263	516.57428	-463.18848	293.23459	546.80640	-501.79242	76.73788	587.29694	-553.26117	42.35571	404.85477	-500.50864	36.42676	431.54657	-653.54364	1696.63025																																	 
127	1.260	341.39120	-678.98956	1629.65735	371.94617	-549.87958	1644.68921	469.01611	-699.60925	1587.96399	494.40845	-571.91223	1603.06494	510.06964	-630.76447	1425.46790	527.87848	-619.98639	1114.09509	382.13043	-612.08325	1361.38147	327.35898	-608.61285	1197.60730	562.62854	-539.67780	1247.22278	427.74881	-773.05237	1395.53040	439.65045	-855.82520	1204.96350	434.81851	-882.43713	1084.78308	401.38736	-899.78961	959.84729	366.72180	-886.59790	842.76721	401.74319	-930.14172	848.71802	376.41467	-931.55951	767.42285	465.69565	-464.76770	1389.53748	474.45435	-368.36859	1179.66504	459.64987	-333.59500	1072.59229	438.91501	-304.20920	939.70435	396.04568	-313.19684	843.74127	438.72739	-279.32101	841.76196	411.10159	-272.75049	771.39996	371.69000	-720.53876	944.56512	386.85992	-487.31378	946.14948	535.38251	-683.66449	979.08374	542.33881	-534.62555	987.46472	444.20319	-773.06934	646.18549	455.92917	-736.14252	468.94931	514.85510	-755.12854	285.43491	539.06818	-729.84869	73.97156	580.75079	-697.08380	37.02239	386.94296	-709.14508	34.36162	464.16187	-441.74225	653.65991	461.12189	-474.88147	473.91260	516.52869	-463.24219	293.22314	546.96747	-501.64111	76.78929	587.18353	-553.01398	42.24849	404.83871	-500.54178	36.42283	431.30563	-653.71808	1696.58606																																	 
128	1.270	341.11859	-679.20508	1629.62000	371.65732	-550.07611	1644.68555	468.75009	-699.75232	1587.92371	494.13495	-572.09033	1603.09631	509.80746	-630.84869	1425.44946	527.63672	-620.08691	1114.10107	381.86240	-612.19507	1361.33472	327.07074	-608.67462	1197.56201	562.39679	-539.75952	1247.25879	427.48438	-773.14545	1395.48853	439.30209	-855.88263	1204.90796	434.39285	-882.42944	1084.73010	400.91696	-899.83099	959.79285	366.28796	-886.61731	842.80292	401.11954	-930.27417	848.71399	375.92169	-931.79279	767.40845	465.39883	-464.86752	1389.50427	474.21463	-368.46399	1179.65979	459.39359	-333.67712	1072.59290	438.71481	-304.33554	939.65643	395.87369	-313.30057	843.71637	438.55371	-279.47610	841.75195	410.98654	-272.86966	771.43634	371.45193	-720.63519	944.55255	386.66452	-487.39243	946.12103	535.18506	-683.78967	979.10059	542.14758	-534.70923	987.47064	444.20184	-773.21094	646.13568	455.87036	-736.27704	468.99811	514.81464	-755.12585	285.42126	539.05078	-729.94745	73.98169	580.73621	-697.09381	37.02190	386.94418	-709.18506	34.35945	464.02515	-441.80048	653.66754	460.99695	-474.88547	473.94669	516.47272	-463.26718	293.24460	546.80927	-501.86972	76.78568	587.28510	-553.26501	42.36579	404.81265	-500.52985	36.42807	431.03915	-653.91266	1696.55249																																	 
